<?xml version="1.0" encoding="iso-8859-1"?>
<!-- Generator: Adobe Illustrator 19.0.0, SVG Export Plug-In . SVG Version: 6.00 Build 0)  -->
<svg version="1.1" id="Layer_1" xmlns="http://www.w3.org/2000/svg" xmlns:xlink="http://www.w3.org/1999/xlink" x="0px" y="0px"
	 viewBox="0 0 512 512" style="enable-background:new 0 0 512 512;" xml:space="preserve">
<path style="fill:#A2A9AF;" d="M512,411.299c0,6.673-5.46,12.133-12.133,12.133H12.133C5.46,423.431,0,417.972,0,411.299V100.701
	c0-6.673,5.46-12.133,12.133-12.133h487.735c6.673,0,12.133,5.46,12.133,12.133V411.299z"/>
<circle style="fill:#FFE1D6;" cx="133.46" cy="215.028" r="30.332"/>
<path style="fill:#FFFFFF;" d="M145.592,267.854l-12.133,16.225l-12.133-16.225c-27.689,5.621-48.531,30.1-48.531,59.448h121.327
	C194.123,297.954,173.282,273.475,145.592,267.854z"/>
<path style="fill:#4C5870;" d="M133.46,308.345c6.701,0,12.133-5.432,12.133-12.133v-28.359c-3.92-0.796-7.977-1.216-12.133-1.216
	s-8.213,0.42-12.133,1.216v28.358C121.327,302.914,126.759,308.345,133.46,308.345z"/>
<g>
	<path style="fill:#3D3D3B;" d="M439.204,268.133H266.919c-6.7,0-12.133-5.432-12.133-12.133c0-6.701,5.433-12.133,12.133-12.133
		h172.284c6.7,0,12.133,5.432,12.133,12.133C451.337,262.701,445.904,268.133,439.204,268.133z"/>
	<path style="fill:#3D3D3B;" d="M291.185,328.796h-24.265c-6.7,0-12.133-5.432-12.133-12.133s5.433-12.133,12.133-12.133h24.265
		c6.7,0,12.133,5.432,12.133,12.133C303.318,323.364,297.885,328.796,291.185,328.796z"/>
	<path style="fill:#3D3D3B;" d="M439.204,328.796h-24.265c-6.7,0-12.133-5.432-12.133-12.133s5.433-12.133,12.133-12.133h24.265
		c6.7,0,12.133,5.432,12.133,12.133C451.337,323.364,445.904,328.796,439.204,328.796z"/>
	<path style="fill:#3D3D3B;" d="M365.194,328.796h-24.265c-6.7,0-12.133-5.432-12.133-12.133s5.433-12.133,12.133-12.133h24.265
		c6.7,0,12.133,5.432,12.133,12.133C377.327,323.364,371.894,328.796,365.194,328.796z"/>
	<path style="fill:#3D3D3B;" d="M353.062,207.469h-86.142c-6.7,0-12.133-5.432-12.133-12.133s5.433-12.133,12.133-12.133h86.142
		c6.7,0,12.133,5.432,12.133,12.133S359.761,207.469,353.062,207.469z"/>
</g>
<g>
</g>
<g>
</g>
<g>
</g>
<g>
</g>
<g>
</g>
<g>
</g>
<g>
</g>
<g>
</g>
<g>
</g>
<g>
</g>
<g>
</g>
<g>
</g>
<g>
</g>
<g>
</g>
<g>
</g>
</svg>
