<?xml version="1.0" encoding="iso-8859-1"?>
<!-- Generator: Adobe Illustrator 19.0.0, SVG Export Plug-In . SVG Version: 6.00 Build 0)  -->
<svg version="1.1" id="Capa_1" xmlns="http://www.w3.org/2000/svg" xmlns:xlink="http://www.w3.org/1999/xlink" x="0px" y="0px"
	 viewBox="0 0 512 512" style="enable-background:new 0 0 512 512;" xml:space="preserve">
<g>
	<polygon style="fill:#DADCDA;" points="417.245,426.966 417.245,170.828 430.322,163.286 430.322,131.529 202.551,0 81.609,69.812 
		81.609,101.57 94.755,109.111 94.755,109.181 94.755,350.236 68.532,365.319 94.755,380.471 217.427,451.321 242.695,465.885 
		249.669,469.933 270.011,481.626 296.303,496.848 322.595,512 443.468,442.188 	"/>
	<polygon style="fill:#B4B4B3;" points="309.449,201.341 309.449,233.098 296.303,225.488 291.805,222.928 256.796,202.724 
		212.861,177.332 195.425,167.299 94.755,109.181 94.755,109.111 81.609,101.57 81.609,69.812 	"/>
	<polygon style="fill:#C9CED1;" points="430.322,131.529 309.449,201.341 81.609,69.812 202.551,0 	"/>
	<polygon style="fill:#A0C7E7;" points="221.219,384.277 221.219,454.642 200.877,442.949 188.008,435.477 168.635,424.337 
		168.635,353.903 188.008,365.111 201.846,373.068 	"/>
	<polygon style="fill:#717275;" points="430.322,131.529 430.322,163.286 417.245,170.828 309.449,233.098 309.449,201.341 	"/>
	<polygon style="fill:#919D9E;" points="417.245,170.828 417.245,427.036 296.303,496.848 296.303,225.488 309.449,233.098 	"/>
	<g>
		<polygon style="fill:#717275;" points="94.755,350.236 94.755,380.471 68.532,365.319 		"/>
		<polygon style="fill:#717275;" points="443.468,442.188 322.595,512 296.303,496.848 417.245,427.036 417.245,426.966 		"/>
	</g>
	<g>
		<polygon style="fill:#A0C7E7;" points="242.107,251.468 270.191,267.686 270.191,235.472 242.107,219.254 		"/>
		<polygon style="fill:#A0C7E7;" points="119.697,180.791 147.781,197.009 147.781,164.795 119.697,148.577 		"/>
		<polygon style="fill:#A0C7E7;" points="180.902,216.133 208.986,232.351 208.986,200.13 180.902,183.919 		"/>
		<polygon style="fill:#A0C7E7;" points="242.107,311.642 270.191,327.86 270.191,295.645 242.107,279.427 		"/>
		<polygon style="fill:#A0C7E7;" points="119.697,240.972 147.781,257.183 147.781,224.969 119.697,208.751 		"/>
		<polygon style="fill:#A0C7E7;" points="180.902,276.307 208.986,292.525 208.986,260.304 180.902,244.093 		"/>
		<polygon style="fill:#A0C7E7;" points="180.902,336.481 208.986,352.699 208.986,320.484 180.902,304.266 		"/>
		<polygon style="fill:#A0C7E7;" points="242.107,371.816 270.191,388.034 270.191,355.819 242.107,339.601 		"/>
		<polygon style="fill:#A0C7E7;" points="242.107,431.997 270.191,448.208 270.191,415.993 242.107,399.775 		"/>
		<polygon style="fill:#A0C7E7;" points="119.697,301.146 147.781,317.357 147.781,285.143 119.697,268.925 		"/>
		<polygon style="fill:#A0C7E7;" points="119.697,361.32 147.781,377.538 147.781,345.316 119.697,329.105 		"/>
	</g>
	<path style="fill:#5496CE;" d="M201.844,373.068v66.422c-0.001,1.22-0.336,2.416-0.969,3.459l-12.869-7.472v-70.365
		L201.844,373.068z"/>
</g>
<g>
</g>
<g>
</g>
<g>
</g>
<g>
</g>
<g>
</g>
<g>
</g>
<g>
</g>
<g>
</g>
<g>
</g>
<g>
</g>
<g>
</g>
<g>
</g>
<g>
</g>
<g>
</g>
<g>
</g>
</svg>
