<?xml version="1.0" encoding="iso-8859-1"?>
<!-- Generator: Adobe Illustrator 19.0.0, SVG Export Plug-In . SVG Version: 6.00 Build 0)  -->
<svg version="1.1" id="Capa_1" xmlns="http://www.w3.org/2000/svg" xmlns:xlink="http://www.w3.org/1999/xlink" x="0px" y="0px"
	 viewBox="0 0 512 512" style="enable-background:new 0 0 512 512;" xml:space="preserve">
<g>
	<polygon style="fill:#A0C7E7;" points="124.402,66.975 124.402,67.183 124.541,67.044 	"/>
	<polygon style="fill:#BDDCF3;" points="454.158,230.4 454.158,473.6 387.667,512 293.501,457.617 152.078,375.974 57.842,321.591 
		57.842,105.444 81.436,92.022 124.402,67.183 147.926,53.622 147.926,53.552 175.671,69.535 175.671,65.315 199.196,51.684 
		199.196,38.4 265.686,0 312.804,27.191 312.874,27.191 312.874,67.736 336.398,81.366 336.398,135.334 359.922,148.964 
		359.991,148.964 359.991,176.225 360.061,176.087 383.516,162.525 430.634,189.786 430.634,216.77 430.564,216.77 430.634,216.839 
			"/>
	<polygon style="fill:#A0C7E7;" points="128.554,146.259 128.554,119.213 81.436,92.022 81.436,119.075 57.842,105.444 
		57.842,321.591 152.078,375.974 152.078,159.827 	"/>
	<polygon style="fill:#5496CE;" points="312.804,27.191 246.314,65.591 242.162,63.17 210.75,45.042 199.196,38.4 265.686,0 	"/>
	<g>
		<polygon style="fill:#336A93;" points="312.874,27.191 312.874,67.736 312.804,67.736 246.314,106.136 246.314,65.591 
			312.804,27.191 		"/>
		<polygon style="fill:#336A93;" points="336.398,81.366 336.398,135.403 269.976,173.803 269.907,173.803 269.907,119.766 		"/>
	</g>
	<polygon style="fill:#5496CE;" points="359.922,148.964 293.501,187.364 293.431,187.364 269.976,173.803 336.398,135.403 
		336.398,135.334 	"/>
	<polyline style="fill:#445C71;" points="124.541,67.044 124.402,66.975 124.402,67.183 	"/>
	<g>
		<polygon style="fill:#336A93;" points="454.158,230.4 454.158,473.6 387.667,512 387.667,268.8 		"/>
		<polygon style="fill:#336A93;" points="430.634,216.77 430.564,216.77 430.634,216.839 364.143,255.239 364.143,228.186 
			407.178,203.347 407.178,203.278 430.634,189.786 		"/>
	</g>
	<g>
		<polygon style="fill:#5496CE;" points="454.158,230.4 387.667,268.8 364.143,255.239 430.634,216.839 		"/>
		<polygon style="fill:#5496CE;" points="430.634,189.786 407.178,203.278 407.178,203.347 364.143,228.186 317.025,200.925 
			359.991,176.225 360.061,176.087 383.516,162.525 		"/>
	</g>
	<polygon style="fill:#A0C7E7;" points="364.143,255.239 364.143,228.186 317.025,200.925 317.025,228.048 293.501,214.417 
		293.501,457.617 387.667,512 387.667,268.8 	"/>
	<polygon style="fill:#5496CE;" points="317.025,200.925 317.025,228.048 293.501,214.417 	"/>
	<polygon style="fill:#336A93;" points="359.991,148.964 359.991,176.225 317.025,200.925 293.501,214.417 293.501,187.364 
		359.922,148.964 	"/>
	<g>
		<polygon style="fill:#5496CE;" points="336.398,81.366 269.907,119.766 246.314,106.136 312.804,67.736 312.874,67.736 		"/>
		<polygon style="fill:#5496CE;" points="199.196,51.684 199.196,78.599 198.919,78.737 198.85,78.737 175.671,65.315 		"/>
		<polygon style="fill:#5496CE;" points="81.436,92.022 81.436,119.075 57.842,105.444 		"/>
		<polygon style="fill:#5496CE;" points="175.671,92.16 175.671,119.351 152.078,105.79 171.797,94.374 		"/>
		<polyline style="fill:#5496CE;" points="128.554,146.197 128.554,119.144 171.589,94.305 171.658,94.305 171.797,94.374 
			152.078,105.79 152.078,159.827 		"/>
	</g>
	<polygon style="fill:#336A93;" points="175.671,69.535 175.671,91.952 171.658,94.305 171.589,94.305 128.554,119.144 
		128.554,119.213 81.436,92.022 124.402,67.183 147.926,53.622 147.926,53.552 	"/>
	<g>
		<path style="fill:#F0F3F4;" d="M222.768,99.453c-1.835,0.001-3.596-0.728-4.894-2.025c-1.298-1.298-2.026-3.058-2.025-4.894V79.02
			c0-3.821,3.098-6.919,6.919-6.919s6.919,3.098,6.919,6.919v13.513c0.001,1.835-0.728,3.596-2.025,4.894
			C226.364,98.725,224.604,99.454,222.768,99.453z"/>
		<path style="fill:#F0F3F4;" d="M246.323,410.291c-1.835,0.001-3.596-0.728-4.894-2.025c-1.298-1.298-2.026-3.058-2.025-4.894
			V187.196c0-3.821,3.098-6.919,6.919-6.919s6.919,3.098,6.919,6.919v216.176c0.001,1.835-0.728,3.596-2.025,4.894
			C249.918,409.563,248.158,410.292,246.323,410.291z"/>
		<path style="fill:#F0F3F4;" d="M269.883,423.892c-1.835,0.001-3.596-0.728-4.894-2.025c-1.298-1.298-2.026-3.058-2.025-4.894
			V200.797c0-3.821,3.098-6.919,6.919-6.919c3.821,0,6.919,3.098,6.919,6.919v216.176c0.001,1.835-0.728,3.596-2.025,4.894
			C273.479,423.164,271.719,423.893,269.883,423.892z"/>
		<path style="fill:#F0F3F4;" d="M175.647,369.486c-1.835,0.001-3.596-0.728-4.894-2.025c-1.298-1.298-2.026-3.058-2.025-4.894
			V146.399c0-3.821,3.098-6.919,6.919-6.919c3.821,0,6.919,3.098,6.919,6.919v216.169c0.001,1.835-0.728,3.596-2.025,4.894
			C179.243,368.759,177.482,369.488,175.647,369.486z"/>
		<path style="fill:#F0F3F4;" d="M222.768,396.689c-1.835,0.001-3.596-0.728-4.894-2.025s-2.026-3.058-2.025-4.894V173.595
			c0-3.821,3.098-6.919,6.919-6.919s6.919,3.098,6.919,6.919V389.77c0.001,1.835-0.728,3.596-2.025,4.894
			C226.364,395.962,224.604,396.69,222.768,396.689z"/>
		<path style="fill:#F0F3F4;" d="M199.208,383.088c-1.835,0.001-3.596-0.728-4.894-2.025c-1.298-1.298-2.026-3.058-2.025-4.894
			V159.993c0-3.821,3.098-6.919,6.919-6.919s6.919,3.098,6.919,6.919v216.176c0.001,1.835-0.728,3.596-2.025,4.894
			C202.804,382.36,201.043,383.089,199.208,383.088z"/>
		<path style="fill:#F0F3F4;" d="M222.768,153.412c-1.835,0.001-3.596-0.728-4.894-2.025s-2.026-3.058-2.025-4.894v-26.939
			c0-3.821,3.098-6.919,6.919-6.919s6.919,3.098,6.919,6.919v26.939c0.001,1.835-0.728,3.596-2.025,4.894
			C226.364,152.685,224.604,153.413,222.768,153.412z"/>
		<path style="fill:#F0F3F4;" d="M246.323,167.014c-1.835,0.001-3.596-0.728-4.894-2.025c-1.298-1.298-2.026-3.058-2.025-4.894
			v-26.939c0-3.821,3.098-6.919,6.919-6.919s6.919,3.098,6.919,6.919v26.939c0.001,1.835-0.728,3.596-2.025,4.894
			S248.158,167.015,246.323,167.014z"/>
		<path style="fill:#F0F3F4;" d="M199.208,139.811c-1.835,0.001-3.596-0.728-4.894-2.025c-1.298-1.298-2.026-3.058-2.025-4.894
			v-26.939c0-3.821,3.098-6.919,6.919-6.919s6.919,3.098,6.919,6.919v26.939c0.001,1.835-0.728,3.596-2.025,4.894
			C202.804,139.083,201.043,139.812,199.208,139.811z"/>
		<path style="fill:#F0F3F4;" d="M364.106,289.149c-1.212,0.001-2.403-0.318-3.453-0.926l-47.115-27.203
			c-3.31-1.911-4.444-6.143-2.534-9.453c1.911-3.31,6.143-4.444,9.453-2.534l47.115,27.203c2.715,1.566,4.038,4.761,3.225,7.787
			C369.985,287.05,367.24,289.153,364.106,289.149z"/>
		<path style="fill:#F0F3F4;" d="M364.106,316.169c-1.212,0.001-2.403-0.318-3.453-0.926l-47.115-27.203
			c-3.308-1.912-4.441-6.142-2.531-9.451c1.91-3.309,6.14-4.444,9.45-2.536l47.115,27.203c2.714,1.566,4.038,4.761,3.225,7.787
			S367.24,316.173,364.106,316.169z"/>
		<path style="fill:#F0F3F4;" d="M364.106,343.189c-1.212,0.001-2.403-0.318-3.453-0.926l-47.115-27.203
			c-3.308-1.912-4.441-6.142-2.531-9.451c1.91-3.309,6.14-4.444,9.45-2.536l47.115,27.203c2.714,1.566,4.038,4.761,3.225,7.787
			S367.24,343.193,364.106,343.189z"/>
		<path style="fill:#F0F3F4;" d="M364.106,370.21c-1.212,0.001-2.403-0.318-3.453-0.926l-47.115-27.203
			c-3.31-1.911-4.444-6.143-2.534-9.453c1.911-3.31,6.143-4.444,9.453-2.534l47.115,27.203c2.715,1.566,4.038,4.761,3.225,7.787
			S367.24,370.214,364.106,370.21z"/>
		<path style="fill:#F0F3F4;" d="M364.106,397.23c-1.212,0.001-2.403-0.318-3.453-0.926l-47.115-27.203
			c-2.143-1.235-3.463-3.52-3.464-5.993c-0.001-2.473,1.319-4.759,3.46-5.995c2.142-1.236,4.781-1.236,6.922,0.002l47.115,27.203
			c2.714,1.566,4.038,4.761,3.225,7.787C369.985,395.131,367.24,397.234,364.106,397.23z"/>
		<path style="fill:#F0F3F4;" d="M364.106,424.25c-1.212,0.001-2.403-0.318-3.453-0.926l-47.115-27.196
			c-2.143-1.235-3.463-3.52-3.464-5.993c-0.001-2.473,1.319-4.759,3.46-5.995c2.142-1.236,4.781-1.236,6.922,0.002l47.115,27.196
			c2.714,1.566,4.038,4.761,3.225,7.787S367.24,424.254,364.106,424.25z"/>
		<path style="fill:#F0F3F4;" d="M364.106,451.277c-1.212,0.001-2.403-0.318-3.453-0.926l-47.115-27.203
			c-2.143-1.235-3.463-3.52-3.464-5.993c-0.001-2.473,1.319-4.759,3.46-5.995c2.142-1.236,4.781-1.236,6.922,0.002l47.115,27.203
			c2.714,1.566,4.038,4.761,3.225,7.787S367.24,451.281,364.106,451.277L364.106,451.277z"/>
		<path style="fill:#F0F3F4;" d="M364.106,478.297c-1.212,0.001-2.403-0.318-3.453-0.926l-47.115-27.203
			c-3.31-1.911-4.444-6.143-2.534-9.453c1.911-3.31,6.143-4.444,9.453-2.534l47.115,27.203c2.714,1.566,4.038,4.761,3.225,7.787
			S367.24,478.301,364.106,478.297z"/>
		<path style="fill:#F0F3F4;" d="M128.525,180.155c-1.212,0.001-2.403-0.318-3.453-0.926l-47.115-27.203
			c-3.31-1.911-4.444-6.143-2.534-9.453s6.143-4.444,9.453-2.534l47.115,27.203c2.714,1.566,4.038,4.761,3.225,7.787
			C134.404,178.057,131.659,180.16,128.525,180.155z"/>
		<path style="fill:#F0F3F4;" d="M128.525,207.176c-1.212,0.001-2.403-0.318-3.453-0.926l-47.115-27.203
			c-2.143-1.235-3.463-3.52-3.464-5.993c-0.001-2.473,1.319-4.759,3.46-5.995c2.142-1.236,4.781-1.236,6.922,0.002l47.115,27.203
			c2.714,1.566,4.038,4.761,3.225,7.787S131.659,207.18,128.525,207.176z"/>
		<path style="fill:#F0F3F4;" d="M128.525,234.196c-1.212,0.001-2.403-0.318-3.453-0.926l-47.115-27.203
			c-2.143-1.235-3.463-3.52-3.464-5.993c-0.001-2.473,1.319-4.759,3.46-5.995c2.142-1.236,4.781-1.236,6.922,0.002l47.115,27.203
			c2.714,1.566,4.038,4.761,3.225,7.787C134.404,232.098,131.659,234.2,128.525,234.196L128.525,234.196z"/>
		<path style="fill:#F0F3F4;" d="M128.525,261.216c-1.212,0.001-2.403-0.318-3.453-0.926l-47.115-27.203
			c-2.141-1.236-3.46-3.52-3.461-5.993c0-2.472,1.319-4.757,3.459-5.993c2.141-1.236,4.779-1.237,6.92-0.001l47.115,27.203
			c2.714,1.566,4.038,4.761,3.225,7.787S131.659,261.22,128.525,261.216z"/>
		<path style="fill:#F0F3F4;" d="M128.525,288.243c-1.212,0.001-2.403-0.318-3.453-0.926l-47.115-27.203
			c-3.31-1.911-4.444-6.143-2.534-9.453s6.143-4.444,9.453-2.534l47.115,27.203c2.714,1.566,4.038,4.761,3.225,7.787
			C134.404,286.145,131.659,288.248,128.525,288.243L128.525,288.243z"/>
		<path style="fill:#F0F3F4;" d="M128.525,315.264c-1.212,0.001-2.403-0.318-3.453-0.926l-47.115-27.203
			c-2.143-1.235-3.463-3.52-3.464-5.993c-0.001-2.473,1.319-4.759,3.46-5.995c2.142-1.236,4.781-1.236,6.922,0.002l47.115,27.203
			c2.714,1.566,4.038,4.761,3.225,7.787C134.404,313.165,131.659,315.268,128.525,315.264L128.525,315.264z"/>
		<path style="fill:#F0F3F4;" d="M128.525,342.284c-1.212,0.001-2.403-0.318-3.453-0.926l-47.115-27.203
			c-2.143-1.235-3.463-3.52-3.464-5.993c-0.001-2.473,1.319-4.759,3.46-5.995c2.142-1.236,4.781-1.236,6.922,0.002l47.115,27.203
			c2.714,1.566,4.038,4.761,3.225,7.787C134.404,340.185,131.659,342.288,128.525,342.284z"/>
	</g>
</g>
<g>
</g>
<g>
</g>
<g>
</g>
<g>
</g>
<g>
</g>
<g>
</g>
<g>
</g>
<g>
</g>
<g>
</g>
<g>
</g>
<g>
</g>
<g>
</g>
<g>
</g>
<g>
</g>
<g>
</g>
</svg>
