<svg xmlns="http://www.w3.org/2000/svg" data-name="Layer 1" viewBox="0 0 512 512"><path fill="#a4aed3" d="M365.61874,360.62737v12.37012H298.16879V241.54729l14.90992-1.95019,28.43994-3.71973v98.04a13.00948,13.00948,0,0,0,9.2,12.42969l5.59009,1.71044A13.14706,13.14706,0,0,1,365.61874,360.62737Z"/><path fill="#7685a5" d="M328.92847,262.65717a12.95134,12.95134,0,0,0,12.59034,2.94825v-29.728l-28.43995,3.71972-7.71093,1.00831Z"/><path fill="#a4aed3" d="M304.59994,150.29515l-1.90479,72.47751L328.933,247.32861a12.97281,12.97281,0,0,0,19.48425-2.02081l18.85561-26.87467a55.07069,55.07069,0,0,0,8.646-43.71848l-11.79438-52.4195Z"/><path fill="#a4aed3" d="M367.26865,218.76751l-18.84986,26.86962a12.97627,12.97627,0,0,1-19.49023,2.02l-26.23-24.5498,1.90014-72.48,50.52-23.75977,9.01-4.24023,3.79981,16.87988,7.99023,35.54A55.04033,55.04033,0,0,1,367.26865,218.76751Z"/><path fill="#a4aed3" d="M416.02866,101.88713a14.77248,14.77248,0,0,1-1.62012,2.28028l-18.84985,22.02978a15.14614,15.14614,0,0,1-19.13013,3.25l-12.29981-7.1499h-.01l-9.23,4.33984-50.29,23.66016L293.16879,98.37737l16.41587-59.946,35.194-10.59408a21.71747,21.71747,0,0,1,22.99,6.98l8.96,10.87988a17.57356,17.57356,0,0,0,3.27,3.07032l.05.02a9.48246,9.48246,0,0,0,.92993.62988,17.89321,17.89321,0,0,0,5.14013,2.20019c.30982.07959.61988.14991.94.21a2.33067,2.33067,0,0,0,.25.04c.34008.06983.68994.11963,1.04.15967l3.15992.37012a17.72715,17.72715,0,0,1,15.62011,16.37012l.6399,9.10009,5.74,5.63965A15.15859,15.15859,0,0,1,416.02866,101.88713Z"/><path fill="#596381" d="M364.11874,122.29729h.01l12.29981,7.1499a15.14614,15.14614,0,0,0,19.13013-3.25l18.84985-22.02978a14.77248,14.77248,0,0,0,1.62012-2.28028,15.00161,15.00161,0,0,0-2.52-3.25976l-5.74-5.62988-.6399-9.1001a17.71871,17.71871,0,0,0-15.62011-16.37012l-3.15992-.37012a17.78516,17.78516,0,0,1-8.3-3.25l-.05-.00976-2.39991,1.52978a33.75939,33.75939,0,0,0-11.46,12.25l-15.8,28.87012-.47.8501a14.05711,14.05711,0,0,0,1.83985,16.1001c1.06006,1.0498,2.12012,2.08984,3.18017,3.13964l.23.23047c4.27,4.21,8.62809,8.50705,12.89811,12.72677l-3.77638-16.7839Z"/><path fill="#a4aed3" d="M416.02866,101.88713a14.77248,14.77248,0,0,1-1.62012,2.28028l-18.84985,22.02978a15.14614,15.14614,0,0,1-19.13013,3.25l-12.29981-7.1499h-.01L351.70859,108.3676a14.69187,14.69187,0,0,1-1.36988-1.82031,14.047,14.047,0,0,1-.47-14.27978l16.27-29.72022a33.75551,33.75551,0,0,1,11.46-12.25l2.39991-1.52978.05.02q.45006.32958.92993.62988a17.797,17.797,0,0,0,2.99,1.50976,16.29866,16.29866,0,0,0,2.15014.69043c.30982.07959.61988.14991.94.21a2.33067,2.33067,0,0,0,.25.04c.34985.06983.68994.11963,1.04.15967l3.15992.37012a17.72715,17.72715,0,0,1,15.62011,16.37012l.6399,9.10009,5.74,5.63965A15.15859,15.15859,0,0,1,416.02866,101.88713Z"/><path fill="#7685a5" d="M344.82016 149.66545a11.9972 11.9972 0 0 1-9.624-19.14355 3.50024 3.50024 0 0 1 5.623 4.16992 4.99978 4.99978 0 0 0 8.03223 5.95606 3.50025 3.50025 0 1 1 5.62305 4.16992A11.9938 11.9938 0 0 1 344.82016 149.66545zM353.69711 184.65471a12.13427 12.13427 0 0 1-1.73632-.125 11.99955 11.99955 0 0 1-5.47754-21.48535 3.5002 3.5002 0 0 1 4.19336 5.60547 4.99919 4.99919 0 0 0 2.2832 8.95117 4.95042 4.95042 0 0 0 3.70605-.94433 3.5 3.5 0 1 1 4.19532 5.60351A11.908 11.908 0 0 1 353.69711 184.65471zM349.4393 217.23284a11.99681 11.99681 0 0 1-7.11621-21.66992 3.5 3.5 0 1 1 4.14258 5.64257 5.00008 5.00008 0 1 0 5.916 8.0625 3.5 3.5 0 1 1 4.14258 5.64258A11.94164 11.94164 0 0 1 349.4393 217.23284z"/><path fill="#596381" d="M407.27146 112.51331l-17.30875-16.4254a6.42365 6.42365 0 0 0-8.76314-.075l-5.69082 5.2183a6.42364 6.42364 0 0 0 .41758 9.82048l19.63529 15.14853zM390.34848 81.017a3.5 3.5 0 0 1-2.44434-6.00489l4.31836-4.21386a3.49989 3.49989 0 0 1 4.88868 5.00976l-4.31836 4.21387A3.4889 3.4889 0 0 1 390.34848 81.017z"/><path fill="#a4aed3" d="M146.38126,360.62737v12.37012h67.45V241.54729l-14.90992-1.95019-28.43994-3.71973v98.04a13.00948,13.00948,0,0,1-9.2,12.42969l-5.59009,1.71044A13.14706,13.14706,0,0,0,146.38126,360.62737Z"/><path fill="#a4aed3" d="M207.40006,150.29515l1.90479,72.47751L183.067,247.32861a12.97281,12.97281,0,0,1-19.48425-2.02081l-18.85561-26.87467a55.07069,55.07069,0,0,1-8.646-43.71848l11.79438-52.4195Z"/><path fill="#7685a5" d="M198.92115,239.59711l-28.43994-3.71972v29.728a12.95133,12.95133,0,0,0,12.59033-2.94825l23.56055-22.05175Z"/><path fill="#a4aed3" d="M144.73135,218.76751l18.84986,26.86962a12.98182,12.98182,0,0,0,16.89558,3.91077c.91732-.50791,1.78958-16.1374,2.59465-16.89075l26.23-9.5498-1.90014-72.48-50.52-23.75977-9.01-4.24023-3.79981,16.87988-7.99023,35.54A55.04033,55.04033,0,0,0,144.73135,218.76751Z"/><path fill="#a4aed3" d="M95.97134,101.88713a14.77248,14.77248,0,0,0,1.62012,2.28028l18.84985,22.02978a15.14614,15.14614,0,0,0,19.13013,3.25l12.29981-7.1499h.01l9.23,4.33984,50.29,23.66016-3.57007-51.91992-3.11349-60.67962-33.49638-9.86042a21.71747,21.71747,0,0,0-22.99,6.98l-8.96,10.87988a17.57356,17.57356,0,0,1-3.27,3.07032l-.05.02a9.48246,9.48246,0,0,1-.92993.62988,17.89321,17.89321,0,0,1-5.14013,2.20019c-.30982.07959-.61988.14991-.93995.21a2.33067,2.33067,0,0,1-.25.04c-.34008.06983-.68994.11963-1.04.15967l-3.15992.37012a17.72715,17.72715,0,0,0-15.62011,16.37012l-.6399,9.10009-5.74,5.63965A15.15859,15.15859,0,0,0,95.97134,101.88713Z"/><path fill="#596381" d="M147.88126,122.29729h-.01l-12.29981,7.1499a15.14614,15.14614,0,0,1-19.13013-3.25L97.59146,104.16741a14.77248,14.77248,0,0,1-1.62012-2.28028,15.00161,15.00161,0,0,1,2.52-3.25976l5.74-5.62988.6399-9.1001a17.71871,17.71871,0,0,1,15.62011-16.37012l3.15992-.37012a17.78516,17.78516,0,0,0,8.3-3.25l.05-.00976,2.39991,1.52978a33.75939,33.75939,0,0,1,11.46,12.25l15.80005,28.87012.47.8501a14.05711,14.05711,0,0,1-1.83985,16.1001c-1.06006,1.0498-2.12012,2.08984-3.18017,3.13964l-.23.23047c-4.27,4.21-8.62809,8.50705-12.89811,12.72677l3.77638-16.7839Z"/><path fill="#a4aed3" d="M95.97134,101.88713a14.77248,14.77248,0,0,0,1.62012,2.28028l18.84985,22.02978a15.14614,15.14614,0,0,0,19.13013,3.25l12.29981-7.1499h.01l12.41015-13.92969a14.69187,14.69187,0,0,0,1.36988-1.82031,14.047,14.047,0,0,0,.47-14.27978l-16.27-29.72022a33.75551,33.75551,0,0,0-11.46-12.25l-2.39991-1.52978-.05.02q-.45006.32958-.92993.62988a17.797,17.797,0,0,1-2.99,1.50976,16.29866,16.29866,0,0,1-2.15014.69043c-.30982.07959-.61988.14991-.93995.21a2.33067,2.33067,0,0,1-.25.04c-.34985.06983-.68994.11963-1.04.15967l-3.15992.37012a17.72715,17.72715,0,0,0-15.62011,16.37012l-.6399,9.10009-5.74,5.63965A15.15859,15.15859,0,0,0,95.97134,101.88713Z"/><path fill="#7685a5" d="M167.17984 149.66545a11.9972 11.9972 0 0 0 9.624-19.14355 3.50024 3.50024 0 1 0-5.623 4.16992 4.99978 4.99978 0 0 1-8.03223 5.95606 3.50025 3.50025 0 1 0-5.62305 4.16992A11.9938 11.9938 0 0 0 167.17984 149.66545zM158.30289 184.65471a12.13427 12.13427 0 0 0 1.73632-.125 11.99955 11.99955 0 0 0 5.47754-21.48535 3.5002 3.5002 0 0 0-4.19336 5.60547 4.99919 4.99919 0 0 1-2.2832 8.95117 4.95042 4.95042 0 0 1-3.70605-.94433 3.5 3.5 0 1 0-4.19532 5.60351A11.908 11.908 0 0 0 158.30289 184.65471zM162.5607 217.23284a11.99681 11.99681 0 0 0 7.11621-21.66992 3.5 3.5 0 1 0-4.14258 5.64257 5.00008 5.00008 0 1 1-5.916 8.0625 3.5 3.5 0 1 0-4.14258 5.64258A11.94164 11.94164 0 0 0 162.5607 217.23284z"/><path fill="#596381" d="M104.72854 112.51331l17.30875-16.4254a6.42365 6.42365 0 0 1 8.76314-.075l5.69082 5.2183a6.42364 6.42364 0 0 1-.41758 9.82048l-19.63529 15.14853zM121.65152 81.017a3.5 3.5 0 0 0 2.44434-6.00489l-4.31836-4.21386a3.49989 3.49989 0 0 0-4.88868 5.00976l4.31836 4.21387A3.4889 3.4889 0 0 0 121.65152 81.017z"/><path fill="#7685a5" d="M329.48789 373H282.70983l-2.40652-5.60062a13.2936 13.2936 0 0 1 2.05655-13.82421l5.00421-5.92682a13.29362 13.29362 0 0 0 3.10523-9.48484l-7.75947-113.24546 46.77806-7-7.805 120.4913a13.29356 13.29356 0 0 0 2.86832 9.14255l5.12793 6.43679a13.29357 13.29357 0 0 1 2.07088 12.8941zM229.68734 373H182.90928l-2.40651-5.60062a13.29361 13.29361 0 0 1 2.05654-13.82421l5.00421-5.92682a13.29359 13.29359 0 0 0 3.10524-9.48484l-7.75948-113.24546 46.77806-7-7.805 120.4913a13.29356 13.29356 0 0 0 2.86832 9.14255l5.12793 6.43679a13.2936 13.2936 0 0 1 2.07088 12.8941z"/><path fill="#a4aed3" d="M316.74863,366.88713l-2.26,6.11036h-46.78l-2.40991-5.6001a13.29836,13.29836,0,0,1,2.06-13.81983l5.01-5.93017a13.30427,13.30427,0,0,0,3.09986-9.48l-3.65991-53.4502-4.1001-59.7998,46.78-7-1.40991,21.67969-.44075,6.8155L297.03854,255.682l14.19971,6.05331-4.55969,76.67187a13.29261,13.29261,0,0,0,2.87012,9.14014l5.12988,6.43994A13.285,13.285,0,0,1,316.74863,366.88713Z"/><polygon fill="#7685a5" points="298.138 267.425 311.238 261.735 313.048 233.745 314.458 212.065 267.678 219.065 271.778 278.865 298.138 267.425"/><path fill="#596381" d="M331.33228,249.103h0a31.4149,31.4149,0,0,1-11.29306,8.64684l-8.79935,3.98353,1.81006-27.99024C314.36,235.46333,331.33228,249.103,331.33228,249.103Z"/><path fill="#a4aed3" d="M246.94858,366.88713l-2.25977,6.11036H197.90854l-2.40991-5.6001a13.29837,13.29837,0,0,1,2.06006-13.81983l5-5.93017a13.26836,13.26836,0,0,0,3.1101-9.48l-4.86047-76.38233,14.29754-4.85106-15.70113-10.23986-.48594-7.09706-1.01025-14.67969,46.78027-7-4.33008,66.87012-3.48,53.61962a13.29361,13.29361,0,0,0,2.86988,9.14014l5.13012,6.43994A13.3105,13.3105,0,0,1,246.94858,366.88713Z"/><polygon fill="#7685a5" points="200.808 261.785 213.798 267.425 240.328 278.935 244.658 212.065 197.878 219.065 198.888 233.745 200.808 261.785"/><path fill="#596381" d="M200.81019,261.78315l-.11036-.0498c-5.12646-2.35352-20.223-12.18545-20.223-12.18545L184.61,244.373s12.97022-8.90966,14.27979-10.62988Z"/><rect width="284" height="104" x="113.999" y="373" fill="#7685a5" rx="25.134"/><path fill="#a4aed3" d="M141.99913,477h228a0,0,0,0,1,0,0v7a14,14,0,0,1-14,14h-200a14,14,0,0,1-14-14v-7A0,0,0,0,1,141.99913,477Z"/><circle cx="255.992" cy="424.651" r="48.721" fill="#a4aed3"/><path fill="#596381" d="M264.57692,431.23825l36.50989,11.86222a48.30677,48.30677,0,0,0,2.07722-6.22184L266.605,425.00039l36.71164-11.92856a48.332,48.332,0,0,0-1.98505-6.25021l-.01738.00366-36.73566,11.93634L287.283,387.51193c.03019-.04163.048-.08784.07594-.13038a48.88947,48.88947,0,0,0-5.26318-3.85938c-.0382.04712-.08349.08464-.11963.13405L259.271,414.90682V376.27967c0-.07869-.01761-.15189-.0231-.2292-1.07739-.07091-2.16049-.12032-3.256-.12032s-2.17879.04941-3.2564.12032c-.00549.07731-.02311.15051-.02311.2292v38.62715l-22.70425-31.2506c-.03614-.04941-.08143-.08693-.11986-.13405a48.90931,48.90931,0,0,0-5.26318,3.85892c.02814.043.046.08921.07617.13084l22.7038,31.24969-36.73589-11.93634-.01693-.00366a48.33355,48.33355,0,0,0-1.985,6.25021l36.71118,11.92856-36.55861,11.87824a48.30527,48.30527,0,0,0,2.07723,6.22184l36.50852-11.86222L224.925,462.18a48.79571,48.79571,0,0,0,5.32471,3.831L252.7124,435.094v38.15548c1.08517.07228,2.17628.12215,3.27951.12215s2.19412-.04987,3.27905-.12215V435.09259l22.46407,30.918a48.85915,48.85915,0,0,0,5.32357-3.8301Z"/><circle cx="255.992" cy="425" r="10.306" fill="#a4aed3"/><path fill="#596381" d="M255.99146,438.8061a13.80616,13.80616,0,1,1,13.80664-13.80566A13.82151,13.82151,0,0,1,255.99146,438.8061Zm0-20.61231a6.80616,6.80616,0,1,0,6.80664,6.80665A6.81386,6.81386,0,0,0,255.99146,418.19379Z"/><path fill="#596381" d="M255.88491,477a52,52,0,1,1,52-52A52.05892,52.05892,0,0,1,255.88491,477Zm0-97.44144A45.44144,45.44144,0,1,0,301.32635,425,45.4927,45.4927,0,0,0,255.88491,379.55856Z"/><path fill="#7685a5" d="M222.40113 150.62739l-24.804-43.28164L172.62574 167.3686a54.30532 54.30532 0 0 0-2.958 32.13916l9.92237 46.56006q.23291.75732.44238 1.56054c.168.647.31006 1.28174.4375 1.90723a12.9862 12.9862 0 0 0 2.60156-1.87842l24.36426-22.80371q.92871-1.03491 1.85693-2.06933zM302.70679 222.78852l.77784 1.05469 25.44384 23.814a13.03677 13.03677 0 0 0 2.37159 1.75977c.00927-.105.02978-.20654.03222-.314a12.72267 12.72267 0 0 0 1.07324-3.04882l9.91309-46.855a54.30017 54.30017 0 0 0-2.98877-32.09473l-24.26724-57.6821-10.46372 11.20505z"/><path fill="#7685a5" d="M327.82545 72.52192V40.16254a40.23127 40.23127 0 0 0-.62891-7.03271l-17.61182 5.30176-16.416 59.9458 7.415 33.68115A79.188 79.188 0 0 0 327.82545 72.52192zM203.83131 98.37739L200.71754 37.6977 184.822 33.0185a40.203 40.203 0 0 0-.64893 7.144V72.52192a79.20594 79.20594 0 0 0 21.602 54.12842z"/><path fill="#7685a5" d="M327.82545,72.52192a79.13831,79.13831,0,0,1-31.06739,62.64844,56.38493,56.38493,0,0,1-33.93652,11.43652H249.176a56.39136,56.39136,0,0,1-33.93652-11.43652A79.13879,79.13879,0,0,1,184.1731,72.52192V40.16254Z"/><path fill="#a4aed3" d="M315.30953,245.25285l-45.29377,19.66241a35.19946,35.19946,0,0,1-28.03326,0l-45.30315-19.66648a10.964,10.964,0,0,1-6.35726-7.772l-8.52835-40.01929a46.67288,46.67288,0,0,1,2.54247-27.62427L212.49913,102h87l28.12248,67.60607a46.67275,46.67275,0,0,1,2.5689,27.58632L321.67015,237.465A10.964,10.964,0,0,1,315.30953,245.25285Z"/><path fill="#a4aed3" d="M315.30953,245.25285l-45.29377,19.66241a35.19946,35.19946,0,0,1-28.03326,0l-45.30315-19.66648a10.964,10.964,0,0,1-6.35726-7.772l-8.52835-40.01929a46.67288,46.67288,0,0,1,2.54247-27.62427L212.49913,102h87l28.12248,67.60607a46.67275,46.67275,0,0,1,2.5689,27.58632L321.67015,237.465A10.964,10.964,0,0,1,315.30953,245.25285Z"/><path fill="#7685a5" d="M299.49927,102h-87l-9.1289,21.98779a77.859,77.859,0,0,0,11.86914,11.18262A56.39136,56.39136,0,0,0,249.176,146.60688h13.64551a56.38493,56.38493,0,0,0,33.93652-11.43652,77.87446,77.87446,0,0,0,11.88184-11.19678Z"/><path fill="#a4aed3" d="M288.28472,124.0262l0,0A42.06976,42.06976,0,0,1,262.822,132.607H249.17631a42.06986,42.06986,0,0,1-25.46273-8.58073l0,0a64.70053,64.70053,0,0,1-25.54058-51.504V40.16261A26.16261,26.16261,0,0,1,224.33558,14h63.3271A26.16262,26.16262,0,0,1,313.8253,40.16261V72.52226A64.70053,64.70053,0,0,1,288.28472,124.0262Z"/><path fill="#596381" d="M239.36606,98.371a16.76489,16.76489,0,0,0,33.49829.00195,31.476,31.476,0,0,0-33.49829-.00195Z"/><path fill="#7685a5" d="M220.99887 189.50042a12.01312 12.01312 0 0 1-12-12 3.5 3.5 0 1 1 7 0 5 5 0 0 0 10 0 3.5 3.5 0 1 1 7 0A12.01312 12.01312 0 0 1 220.99887 189.50042zM255.99887 189.50042a12.01312 12.01312 0 0 1-12-12 3.5 3.5 0 1 1 7 0 5 5 0 0 0 10 0 3.5 3.5 0 1 1 7 0A12.01312 12.01312 0 0 1 255.99887 189.50042zM290.99887 189.50042a12.01312 12.01312 0 0 1-12-12 3.5 3.5 0 1 1 7 0 5 5 0 0 0 10 0 3.5 3.5 0 1 1 7 0A12.01312 12.01312 0 0 1 290.99887 189.50042zM276.99887 217.50042a12.01312 12.01312 0 0 1-12-12 3.5 3.5 0 1 1 7 0 5 5 0 0 0 10 0 3.5 3.5 0 1 1 7 0A12.01312 12.01312 0 0 1 276.99887 217.50042zM234.99887 217.50042a12.01312 12.01312 0 0 1-12-12 3.5 3.5 0 1 1 7 0 5 5 0 0 0 10 0 3.5 3.5 0 1 1 7 0A12.01312 12.01312 0 0 1 234.99887 217.50042zM255.99887 245.50042a12.01312 12.01312 0 0 1-12-12 3.5 3.5 0 1 1 7 0 5 5 0 0 0 10 0 3.5 3.5 0 1 1 7 0A12.01312 12.01312 0 0 1 255.99887 245.50042z"/><path fill="#596381" d="M290.92465,49.98088l-5.498-4.29785a14.86556,14.86556,0,0,0-18.13379-.13086l-1.877,1.42481a12.21164,12.21164,0,0,0-3.04,16.16211,1.18476,1.18476,0,0,1-.042,1.30371l-3.67969,5.21777a3.24959,3.24959,0,0,1-5.31152-.002l-3.67871-5.21484a1.18636,1.18636,0,0,1-.041-1.30469,12.21449,12.21449,0,0,0-3.04-16.16211l-1.87793-1.42578a14.867,14.867,0,0,0-18.13379.13183l-5.49805,4.29883a3.49994,3.49994,0,1,0,4.3125,5.51367l5.49805-4.29883a7.86208,7.86208,0,0,1,9.58886-.06933l1.87891,1.42578a5.23653,5.23653,0,0,1,1.30371,6.92773,8.18064,8.18064,0,0,0,.28809,8.99707l3.67871,5.21485a10.248,10.248,0,0,0,4.877,3.71973V87.4467a16.65531,16.65531,0,0,1-10.293,7.16016c-.31836.06152-.63769.11328-.958.15332a9.97439,9.97439,0,0,1-10.26171-5.541,10.44659,10.44659,0,0,1,1.58984-12.124,3.49979,3.49979,0,0,0-5.12305-4.76953,17.4757,17.4757,0,0,0-2.69726,20.084,16.99443,16.99443,0,0,0,17.36816,9.29589q.70752-.08935,1.415-.22656a22.815,22.815,0,0,0,12.46-7.21094,22.82668,22.82668,0,0,0,12.46387,7.21192c.498.0957.99707.1748,1.501.2373a18.21267,18.21267,0,0,0,2.208.13477,16.74237,16.74237,0,0,0,15.11719-9.4375,17.63836,17.63836,0,0,0-2.80762-20.23242,3.49964,3.49964,0,1,0-5.11718,4.77539,10.60033,10.60033,0,0,1,1.68652,12.28222A9.95117,9.95117,0,0,1,270.8143,94.769c-.34082-.042-.68164-.0957-1.01855-.16113a16.66081,16.66081,0,0,1-10.29688-7.16114V77.413a10.2389,10.2389,0,0,0,4.87695-3.71923l3.67774-5.21583a8.17886,8.17886,0,0,0,.291-8.99609,5.23429,5.23429,0,0,1,1.30274-6.92871l1.87793-1.42578a7.86215,7.86215,0,0,1,9.58984.07031l5.499,4.29883a3.5001,3.5001,0,0,0,4.31054-5.51563Z"/></svg>