<?xml version="1.0" encoding="iso-8859-1"?>
<!-- Generator: Adobe Illustrator 19.0.0, SVG Export Plug-In . SVG Version: 6.00 Build 0)  -->
<svg version="1.1" id="Capa_1" xmlns="http://www.w3.org/2000/svg" xmlns:xlink="http://www.w3.org/1999/xlink" x="0px" y="0px"
	 viewBox="0 0 512 512" style="enable-background:new 0 0 512 512;" xml:space="preserve">
<g transform="translate(-1)">
	<polygon style="fill:#FEDEBB;" points="485.532,271.568 430.526,215.317 361.822,206.322 361.822,139.831 375.521,131.875 
		375.521,105.652 348.053,77.492 293.048,21.241 210.574,10.378 138.548,51.961 138.548,52.03 138.479,52.03 138.479,54.383 
		73.095,45.803 73.095,45.734 1.069,87.317 1.069,87.386 1,87.386 1,113.678 14.769,115.408 14.769,115.477 14.769,234.482 
		14.769,250.465 14.769,263.472 56.075,287.343 95.471,310.064 111.011,319.038 111.011,319.101 152.248,342.832 152.248,342.902 
		193.484,366.634 193.505,366.647 193.505,366.668 248.497,398.419 248.497,398.391 289.727,422.262 330.963,446.063 
		385.969,477.821 427.205,501.622 499.301,459.97 499.301,333.907 513,326.019 513,299.728 	"/>
	<polygon style="fill:#D69564;" points="440.974,341.31 440.974,367.602 427.205,353.557 361.822,286.582 358.501,283.191 
		289.727,274.197 275.958,272.398 275.958,246.106 289.727,247.905 358.501,256.899 	"/>
	<polygon style="fill:#D5BFA3;" points="427.205,353.557 427.205,501.622 385.969,477.821 330.963,446.063 289.727,422.262 
		289.727,274.197 358.501,283.191 361.822,286.582 	"/>
	<polygon style="fill:#98A9D5;" points="385.969,335.914 385.969,377.911 365.419,366.08 361.822,364.004 358.501,362.067 
		351.582,358.054 330.963,346.154 330.963,304.156 351.582,315.987 358.501,320 361.822,321.937 365.419,324.013 	"/>
	<g>
		<polygon style="fill:#6D5A61;" points="365.419,324.013 365.419,366.08 361.822,364.004 358.501,362.067 351.582,358.054 
			351.582,315.987 358.501,320 361.822,321.937 		"/>
		<polygon style="fill:#6D5A61;" points="385.969,348.852 385.969,364.835 365.419,353.003 351.582,344.977 330.963,333.077 
			330.963,317.094 351.582,328.995 365.419,337.021 		"/>
	</g>
	<polygon style="fill:#928170;" points="499.301,333.907 499.301,459.97 427.205,501.622 427.205,353.557 440.974,367.602 	"/>
	<polygon style="fill:#935847;" points="513,299.728 513,326.019 499.301,333.907 440.974,367.602 440.974,341.31 	"/>
	<g>
		<polygon style="fill:#936642;" points="513,299.728 440.974,341.31 358.501,256.899 430.526,215.317 485.532,271.568 		"/>
		<polygon style="fill:#936642;" points="430.526,215.317 358.501,256.899 289.727,247.905 275.958,246.106 289.727,238.149 
			348.053,204.454 348.053,204.523 361.822,206.322 		"/>
	</g>
	<polygon style="fill:#D69564;" points="152.248,168.545 152.248,194.768 83.543,124.471 14.769,115.477 14.769,115.408 1,113.678 
		1,87.386 1.069,87.386 83.474,98.179 83.543,98.179 	"/>
	<polygon style="fill:#D5BFA3;" points="152.248,194.768 152.248,342.832 111.011,319.101 111.011,319.031 56.075,287.343 
		14.769,263.472 14.769,115.477 83.543,124.471 	"/>
	<polygon style="fill:#98A9D5;" points="111.011,177.124 111.011,219.191 90.462,207.36 76.624,199.334 56.005,187.434 
		56.005,145.367 76.624,157.267 90.462,165.293 	"/>
	<g>
		<polygon style="fill:#6D5A61;" points="90.462,165.293 90.462,207.36 76.624,199.334 76.624,157.267 		"/>
		<polygon style="fill:#6D5A61;" points="111.011,190.132 111.011,206.115 90.462,194.283 76.624,186.257 56.005,174.357 
			56.005,158.374 76.624,170.275 90.462,178.301 		"/>
	</g>
	<polygon style="fill:#936642;" points="138.479,54.383 138.479,66.491 83.543,98.179 83.474,98.179 1.069,87.386 1.069,87.317 
		73.095,45.734 73.095,45.803 	"/>
	<polygon style="fill:#D69564;" points="303.495,147.235 303.495,173.526 289.727,159.481 289.727,159.412 238.111,106.621 
		233.545,101.916 221.022,89.116 152.248,80.121 152.248,80.052 138.479,78.322 138.479,52.03 138.548,52.03 199.711,60.056 
		221.022,62.824 	"/>
	<polygon style="fill:#936642;" points="152.248,80.052 152.248,168.545 83.543,98.179 138.479,66.491 138.479,78.322 	"/>
	<polygon style="fill:#928170;" points="361.822,139.831 361.822,206.322 348.053,204.523 348.053,204.454 289.727,238.149 
		289.727,159.481 303.495,173.526 	"/>
	<polygon style="fill:#935847;" points="375.521,105.652 375.521,131.875 361.822,139.831 303.495,173.526 303.495,147.235 	"/>
	<g>
		<polygon style="fill:#936642;" points="375.521,105.652 303.495,147.235 221.022,62.824 293.048,21.241 348.053,77.492 		"/>
		<polygon style="fill:#936642;" points="293.048,21.241 221.022,62.824 199.711,60.056 138.548,52.03 138.548,51.961 
			210.574,10.378 		"/>
	</g>
	<g>
		<path style="fill:#928170;" d="M427.203,472.562v15.983l-137.479-79.36v-16.052l3.459,2.006c0.138,0.069,0.277,0.208,0.415,0.277
			L427.203,472.562z"/>
		<polygon style="fill:#928170;" points="152.248,313.842 152.248,329.825 14.769,250.465 14.769,234.482 		"/>
	</g>
	<path style="fill:#D5BFA3;" d="M289.724,393.133v16.052l-3.183-1.868c-0.291-0.135-0.569-0.298-0.83-0.484l-133.466-77.008v-15.983
		L289.724,393.133z"/>
	<polygon style="fill:#98A9D5;" points="248.49,240.848 248.49,282.915 227.941,271.083 214.103,263.057 193.484,251.157 
		193.484,209.09 214.103,220.99 227.941,229.016 	"/>
	<g>
		<polygon style="fill:#6D5A61;" points="227.941,229.016 227.941,271.083 214.103,263.057 214.103,220.99 		"/>
		<polygon style="fill:#6D5A61;" points="248.49,253.855 248.49,269.907 227.941,258.007 214.103,250.05 193.484,238.149 
			193.484,222.097 214.103,233.998 227.941,242.024 		"/>
	</g>
	<polygon style="fill:#98A9D5;" points="248.49,162.11 248.49,204.177 227.941,192.346 214.103,184.32 193.484,172.419 
		193.484,130.352 214.103,142.253 227.941,150.279 	"/>
	<g>
		<polygon style="fill:#6D5A61;" points="227.941,150.279 227.941,192.346 214.103,184.32 214.103,142.253 		"/>
		<polygon style="fill:#6D5A61;" points="248.49,175.118 248.49,191.101 227.941,179.269 214.103,171.243 193.484,159.343 
			193.484,143.429 214.103,155.261 227.941,163.286 		"/>
	</g>
	<polygon style="fill:#D69564;" points="385.976,404.203 385.976,477.793 330.956,446.028 330.956,372.445 353.484,385.432 	"/>
	<path style="fill:#936642;" d="M372.208,439.973c-1.212,0-2.403-0.319-3.453-0.926l-4.581-2.642
		c-3.308-1.912-4.441-6.142-2.531-9.451c1.91-3.309,6.14-4.444,9.45-2.536l4.581,2.642c2.714,1.566,4.038,4.761,3.225,7.787
		S375.341,439.977,372.208,439.973z"/>
	<polygon style="fill:#D69564;" points="111.018,319.045 56.026,287.294 56.026,213.712 111.018,245.456 	"/>
	<path style="fill:#936642;" d="M97.262,281.237c-1.215,0.001-2.409-0.321-3.459-0.932l-4.581-2.649
		c-2.139-1.238-3.454-3.524-3.451-5.995c0.003-2.471,1.324-4.753,3.466-5.986c2.142-1.233,4.779-1.23,6.918,0.009l4.581,2.649
		c2.709,1.569,4.027,4.762,3.213,7.785S100.392,281.239,97.262,281.237z"/>
	<polygon style="fill:#D69564;" points="248.497,398.419 193.505,366.668 193.505,282.652 248.497,314.403 	"/>
	<path style="fill:#936642;" d="M234.742,355.392c-1.212,0.001-2.403-0.318-3.453-0.926l-4.588-2.649
		c-3.308-1.912-4.441-6.142-2.531-9.451c1.91-3.309,6.14-4.444,9.45-2.536l4.588,2.649c2.714,1.566,4.038,4.761,3.225,7.787
		S237.876,355.396,234.742,355.392z"/>
</g>
<g>
</g>
<g>
</g>
<g>
</g>
<g>
</g>
<g>
</g>
<g>
</g>
<g>
</g>
<g>
</g>
<g>
</g>
<g>
</g>
<g>
</g>
<g>
</g>
<g>
</g>
<g>
</g>
<g>
</g>
</svg>
