<svg height="480pt" viewBox="0 -4 480 480" width="480pt" xmlns="http://www.w3.org/2000/svg"><path d="m80 0h320v32h-320zm0 0" fill="#c0c2c4"/><path d="m64 32h352v432h-352zm0 0" fill="#d1d4d6"/><path d="m168 384h144v80h-144zm0 0" fill="#b1b3b5"/><path d="m152 376h176v16h-176zm0 0" fill="#dee1e3"/><path d="m200 416h80v48h-80zm0 0" fill="#4398d1"/><path d="m224 464h56v-48h-8zm0 0" fill="#378cc4"/><path d="m232 416h16v48h-16zm0 0" fill="#3181bd"/><path d="m48 24h384v16h-384zm0 0" fill="#d1d4d6"/><path d="m0 456h480v16h-480zm0 0" fill="#dee1e3"/><path d="m32 416h16v40h-16zm0 0" fill="#a3603e"/><path d="m432 416h16v40h-16zm0 0" fill="#a3603e"/><g fill="#4398d1"><path d="m224 320h32v32h-32zm0 0"/><path d="m160 320h32v32h-32zm0 0"/><path d="m96 320h32v32h-32zm0 0"/><path d="m352 320h32v32h-32zm0 0"/><path d="m288 320h32v32h-32zm0 0"/><path d="m224 256h32v32h-32zm0 0"/><path d="m160 256h32v32h-32zm0 0"/><path d="m96 256h32v32h-32zm0 0"/><path d="m352 256h32v32h-32zm0 0"/><path d="m288 256h32v32h-32zm0 0"/><path d="m224 192h32v32h-32zm0 0"/><path d="m160 192h32v32h-32zm0 0"/><path d="m96 192h32v32h-32zm0 0"/><path d="m352 192h32v32h-32zm0 0"/><path d="m288 192h32v32h-32zm0 0"/><path d="m224 128h32v32h-32zm0 0"/><path d="m160 128h32v32h-32zm0 0"/><path d="m96 128h32v32h-32zm0 0"/><path d="m352 128h32v32h-32zm0 0"/><path d="m288 128h32v32h-32zm0 0"/><path d="m224 64h32v32h-32zm0 0"/><path d="m160 64h32v32h-32zm0 0"/><path d="m96 64h32v32h-32zm0 0"/><path d="m352 64h32v32h-32zm0 0"/><path d="m288 64h32v32h-32zm0 0"/><path d="m96 384h32v48h-32zm0 0"/><path d="m352 384h32v48h-32zm0 0"/></g><path d="m62.921875 351.105469c2.800781-9.019531.050781-18.839844-7.023437-25.097657-7.070313-6.253906-17.15625-7.78125-25.765626-3.902343-8.605468 3.882812-14.136718 12.453125-14.132812 21.894531 0 2.445312.378906 4.871094 1.121094 7.199219 2.5625 7.503906 1.390625 15.777343-3.152344 22.273437-8.050781 11.261719-7.949219 26.421875.253906 37.574219 8.207032 11.148437 22.648438 15.761719 35.796875 11.425781 13.144531-4.332031 22.015625-16.628906 21.980469-30.472656.011719-6.667969-2.09375-13.164062-6.007812-18.558594-4.519532-6.535156-5.660157-14.828125-3.070313-22.335937zm0 0" fill="#88b337"/><path d="m462.921875 351.105469c2.800781-9.019531.050781-18.839844-7.023437-25.097657-7.070313-6.253906-17.15625-7.78125-25.765626-3.902343-8.605468 3.882812-14.136718 12.453125-14.132812 21.894531 0 2.445312.378906 4.871094 1.121094 7.199219 2.5625 7.503906 1.390625 15.777343-3.152344 22.273437-9.507812 13.277344-7.488281 31.582032 4.679688 42.472656 12.167968 10.890626 30.585937 10.867188 42.730468-.046874 12.144532-10.914063 14.121094-29.226563 4.589844-42.484376-4.507812-6.527343-5.636719-14.8125-3.046875-22.308593zm0 0" fill="#88b337"/><path d="m64 40h352v16h-352zm0 0" fill="#c0c2c4"/></svg>