<?xml version="1.0" encoding="iso-8859-1"?>
<!-- Generator: Adobe Illustrator 19.0.0, SVG Export Plug-In . SVG Version: 6.00 Build 0)  -->
<svg version="1.1" id="Capa_1" xmlns="http://www.w3.org/2000/svg" xmlns:xlink="http://www.w3.org/1999/xlink" x="0px" y="0px"
	 viewBox="0 0 512 512" style="enable-background:new 0 0 512 512;" xml:space="preserve">
<g>
	<path style="fill:#BDDCF3;" d="M431.567,185.15v-29.89l-72.165-41.652L299,148.411v0.138l-8.649,4.982l-0.069-0.069l8.718-5.051
		v-47.187l-51.477-29.751h-0.069v-0.069h0.069V42.275h-0.069L175.29,0.554l-25.254,14.599L123.744,0l-69.12,39.922v319.377
		l175.324,101.224v-0.069l34.526-19.927h0.068L388.254,512l69.12-39.922V200.026L431.567,185.15z M178.403,111.382v-0.057
		l51.546,29.821L178.403,111.382z"/>
	<polygon style="fill:#98A9D5;" points="178.405,111.325 247.456,71.472 247.525,71.472 299.002,101.224 299.002,101.293 
		229.951,141.146 	"/>
	<polygon style="fill:#687492;" points="457.376,200.026 457.376,472.078 388.256,512 388.256,239.948 	"/>
	<polygon style="fill:#98A9D5;" points="150.038,15.152 106.172,40.476 106.172,69.674 54.626,39.922 123.746,0 	"/>
	<polygon style="fill:#BDDCF3;" points="178.405,111.381 178.405,82.128 106.172,40.476 106.172,69.674 54.626,39.922 
		54.626,359.299 229.951,460.523 229.951,141.146 	"/>
	<polygon style="fill:#98A9D5;" points="247.456,42.275 178.405,82.128 106.172,40.476 150.038,15.152 175.292,0.554 	"/>
	<polygon style="fill:#687492;" points="247.525,42.275 247.525,71.403 247.456,71.403 247.456,71.472 178.405,111.325 
		178.405,82.128 247.456,42.275 	"/>
	<path style="fill:#BDDCF3;" d="M333.594,128.554L299,148.549"/>
	<polygon style="fill:#98A9D5;" points="457.376,200.026 388.256,239.948 362.449,225.072 431.499,185.15 431.569,185.15 	"/>
	<polygon style="fill:#BDDCF3;" points="290.353,153.531 290.284,153.6 290.284,153.462 	"/>
	<polygon style="fill:#98A9D5;" points="431.569,155.261 362.449,195.183 290.353,153.531 299.002,148.549 299.002,148.411 
		359.404,113.609 	"/>
	<polygon style="fill:#687492;" points="431.569,155.261 431.569,185.15 431.499,185.15 362.449,225.072 362.449,195.183 	"/>
	<polygon style="fill:#98A9D5;" points="290.284,153.6 290.284,183.351 264.477,168.476 	"/>
	<polygon style="fill:#687492;" points="299.002,101.293 299.002,148.411 290.284,153.462 290.284,153.6 264.477,168.476 
		264.477,440.528 229.951,460.454 229.951,141.146 	"/>
	<g>
		<polygon style="fill:#F0F3F4;" points="80.406,113.927 54.626,99.044 54.626,63.557 80.406,78.44 		"/>
		<polygon style="fill:#F0F3F4;" points="131.972,143.699 101.031,125.834 101.031,90.347 131.972,108.212 		"/>
		<polygon style="fill:#F0F3F4;" points="183.532,173.464 152.598,155.606 152.598,120.119 183.532,137.984 		"/>
		<polygon style="fill:#F0F3F4;" points="80.406,173.07 54.626,158.187 54.626,122.7 80.406,137.583 		"/>
		<polygon style="fill:#F0F3F4;" points="131.972,202.842 101.031,184.977 101.031,149.49 131.972,167.355 		"/>
		<polygon style="fill:#F0F3F4;" points="183.532,232.614 152.598,214.749 152.598,179.262 183.532,197.127 		"/>
		<polygon style="fill:#F0F3F4;" points="80.406,232.213 54.626,217.33 54.626,181.843 80.406,196.733 		"/>
		<polygon style="fill:#F0F3F4;" points="131.972,261.985 101.031,244.127 101.031,208.64 131.972,226.498 		"/>
		<polygon style="fill:#F0F3F4;" points="183.532,291.757 152.598,273.892 152.598,238.405 183.532,256.27 		"/>
		<polygon style="fill:#F0F3F4;" points="80.406,291.363 54.626,276.473 54.626,240.986 80.406,255.875 		"/>
		<polygon style="fill:#F0F3F4;" points="131.972,321.135 101.031,303.27 101.031,267.783 131.972,285.648 		"/>
		<polygon style="fill:#F0F3F4;" points="183.532,350.9 152.598,333.042 152.598,297.555 183.532,315.413 		"/>
		<polygon style="fill:#F0F3F4;" points="80.406,350.506 54.626,335.623 54.626,300.136 80.406,315.018 		"/>
		<polygon style="fill:#F0F3F4;" points="131.972,380.278 101.031,362.413 101.031,326.926 131.972,344.79 		"/>
		<polygon style="fill:#F0F3F4;" points="183.532,410.05 152.598,392.185 152.598,356.698 183.532,374.563 		"/>
		<polygon style="fill:#F0F3F4;" points="229.944,200.261 204.157,185.379 204.157,149.891 229.944,164.774 		"/>
		<polygon style="fill:#F0F3F4;" points="229.944,259.404 204.157,244.522 204.157,209.034 229.944,223.917 		"/>
		<polygon style="fill:#F0F3F4;" points="229.944,318.554 204.157,303.664 204.157,268.177 229.944,283.067 		"/>
		<polygon style="fill:#F0F3F4;" points="229.944,377.697 204.157,362.807 204.157,327.32 229.944,342.21 		"/>
		<polygon style="fill:#F0F3F4;" points="229.944,436.84 204.157,421.957 204.157,386.47 229.944,401.353 		"/>
		<polygon style="fill:#F0F3F4;" points="290.277,242.515 264.49,227.626 264.49,192.145 290.277,207.028 		"/>
		<polygon style="fill:#F0F3F4;" points="341.837,272.287 310.903,254.422 310.903,218.935 341.837,236.8 		"/>
		<polygon style="fill:#F0F3F4;" points="290.277,301.658 264.49,286.775 264.49,251.288 290.277,266.171 		"/>
		<polygon style="fill:#F0F3F4;" points="341.837,331.43 310.903,313.565 310.903,278.078 341.837,295.943 		"/>
		<polygon style="fill:#F0F3F4;" points="290.277,360.801 264.49,345.918 264.49,310.431 290.277,325.314 		"/>
		<polygon style="fill:#F0F3F4;" points="341.837,390.573 310.903,372.715 310.903,337.228 341.837,355.086 		"/>
		<polygon style="fill:#F0F3F4;" points="290.277,419.951 264.49,405.061 264.49,369.574 290.277,384.464 		"/>
		<polygon style="fill:#F0F3F4;" points="341.837,449.723 310.903,431.858 310.903,396.371 341.837,414.236 		"/>
		<polygon style="fill:#F0F3F4;" points="388.249,299.077 362.462,284.195 362.462,248.707 388.249,263.59 		"/>
		<polygon style="fill:#F0F3F4;" points="388.249,358.22 362.462,343.338 362.462,307.85 388.249,322.733 		"/>
		<polygon style="fill:#F0F3F4;" points="388.249,417.37 362.462,402.48 362.462,366.993 388.249,381.883 		"/>
		<polygon style="fill:#F0F3F4;" points="388.249,476.513 362.462,461.63 362.462,426.143 388.249,441.026 		"/>
	</g>
	<g>
		<polygon style="fill:#C9CED1;" points="408.508,293.044 439.449,275.179 439.449,239.692 408.508,257.557 		"/>
		<polygon style="fill:#C9CED1;" points="408.508,352.187 439.449,334.322 439.449,298.835 408.508,316.7 		"/>
		<polygon style="fill:#C9CED1;" points="408.508,411.33 439.449,393.472 439.449,357.985 408.508,375.843 		"/>
		<polygon style="fill:#C9CED1;" points="408.508,470.48 439.449,452.615 439.449,417.128 408.508,434.992 		"/>
	</g>
</g>
<g>
</g>
<g>
</g>
<g>
</g>
<g>
</g>
<g>
</g>
<g>
</g>
<g>
</g>
<g>
</g>
<g>
</g>
<g>
</g>
<g>
</g>
<g>
</g>
<g>
</g>
<g>
</g>
<g>
</g>
</svg>
