<?xml version="1.0"?>
<svg xmlns="http://www.w3.org/2000/svg" id="Layer_1" enable-background="new 0 0 512 512" height="512px" viewBox="0 0 512 512" width="512px" class=""><g><g><g opacity=".8"><path d="m199.239 135c0-51.123 33.362-94.446 79.5-109.407-11.182-3.625-23.11-5.593-35.5-5.593-63.513 0-115 51.487-115 115s51.487 115 115 115c12.39 0 24.318-1.968 35.5-5.593-46.138-14.961-79.5-58.284-79.5-109.407z" fill="#c2d9ef" data-original="#C2D9EF"/></g><g><path d="m433 512c-11.046 0-20-8.954-20-20 0-78.299-63.701-142-142-142h-30c-78.299 0-142 63.701-142 142 0 11.046-8.954 20-20 20s-20-8.954-20-20c0-100.355 81.645-182 182-182h30c100.355 0 182 81.645 182 182 0 11.046-8.954 20-20 20z" fill="#ff5cf0" data-original="#FF5CF0" class="" style="fill:#5e72e4" data-old_color="#ff5cf0"/></g><g><path d="m254 270c-74.439 0-135-60.561-135-135s60.561-135 135-135 135 60.561 135 135-60.561 135-135 135zm0-230c-52.383 0-95 42.617-95 95s42.617 95 95 95 95-42.617 95-95-42.617-95-95-95z" fill="#1428bf" data-original="#1428BF" class="active-path" style="fill:#5E72E4" data-old_color="#1428bf"/></g></g></g> </svg>
