<svg xmlns="http://www.w3.org/2000/svg" version="1.0" viewBox="0 0 100.000000 100.000000" preserveAspectRatio="xMidYMid meet" x="0px" y="0px"><metadata>
Created by potrace 1.11, written by Peter Selinger 2001-2013
</metadata><g transform="translate(0.000000,100.000000) scale(0.100000,-0.100000)" fill="#000000" stroke="none"><path d="M231 726 c-48 -17 -108 -71 -133 -119 -30 -57 -30 -155 0 -214 48 -92 160 -146 258 -124 62 14 123 55 153 105 21 33 26 36 71 36 39 0 50 4 63 23 20 31 69 51 103 43 15 -4 38 -20 53 -37 32 -37 52 -37 74 1 10 16 31 39 47 50 19 14 30 30 30 46 l0 24 -210 0 c-133 0 -210 4 -210 10 0 6 77 10 211 10 152 0 208 3 203 11 -5 8 -66 10 -211 6 l-204 -5 -14 28 c-21 40 -88 95 -134 108 -48 15 -106 14 -150 -2z m114 -140 c93 -39 65 -176 -37 -176 -52 0 -88 35 -88 85 0 48 15 74 53 90 40 18 32 17 72 1z"></path></g></svg>